# xmcd
#
# Track frame offsets: 
#        150
#        14227
#        30390
#        42570
#        56464
#        67250
#        79800
#        91425
#        103865
#        115287
#        124990
#        134767
#        149412
#        160465
#        171505
#        184390
#
# Disc length: 2588 seconds
#
# Revision: 3
# Processed by: cddbd v1.5.2PL0 Copyright (c) Steve Scherf et al.
# Submitted via: ExactAudioCopyFreeDBPlugin 1.0
#
DISCID=000a1a10
DTITLE=Various Artist - God Less America
DYEAR=1995
DGENRE=Country
TTITLE0=Ramblin Red Bailey - 8 Weeks In A Barroom
TTITLE1=Arkey Blue and The Blue Cowboys - Too Many Pills
TTITLE2=Billy Ray - The Story Of Susie
TTITLE3=Chuck Wells - Down And Out
TTITLE4=Harry Johnson - It's Nothing To Me
TTITLE5=Horace Heller - Ed's Place
TTITLE6=Pierce Brothers - Death Row
TTITLE7=Country Johnny Mathis - Caryl Chessman
TTITLE8=Troy Hess - Please Don't Go Topless, Mother
TTITLE9=Hi-Fi Guys - Rock'N'Roll Killed My Mother
TTITLE10=Mohawk and The Rednecks - Enchanted Forest
TTITLE11=Cal Veale - Paralysed
TTITLE12=Paul Barton - My Neighbor The Firefighter
TTITLE13=Granpa Joe - The Drunken Driver
TTITLE14=Eddie Noack - Dolores
TTITLE15=Lum Hatcher - Behind The Fear
EXTD=
EXTT0=
EXTT1=
EXTT2=
EXTT3=
EXTT4=
EXTT5=
EXTT6=
EXTT7=
EXTT8=
EXTT9=
EXTT10=
EXTT11=
EXTT12=
EXTT13=
EXTT14=
EXTT15=
PLAYORDER=
